<svg xmlns="http://www.w3.org/2000/svg" viewBox="0 0 330 58.16"><path d="M0 18.78a14 14 0 0 0 7.43 2.54c4.12 0 5.54-2.49 5.54-7.39V4.37C13 2.12 12.51.78 11.05 0h8.68c-1.48.82-1.91 2.16-1.91 4.37V14c0 7.43-2.71 10.9-9.8 10.9-3.07 0-5.22-.78-6.5-.78a3.56 3.56 0 0 0-1.52.41ZM48.38 21.46c-3.53 0-5.58-2.08-5.58-5.73 0-4 2.18-6.36 6-6.36 3.53 0 5.61 2.09 5.61 5.79 0 4-2.21 6.3-6.07 6.3m10.69-6c0-5.85-3.79-9.3-10.46-9.3-6.47 0-10.39 3.87-10.39 9.51s3.76 9.1 10.39 9.1C55 24.77 59 20.83 59 15.46M106.79 19.92c0 2.21.49 3.56 1.91 4.38h-8.12c1.42-.82 1.92-2.17 1.92-4.38V4.37c0-2.25-.5-3.59-1.92-4.37h10a1.65 1.65 0 0 0-.23.78 2.49 2.49 0 0 0 .23.89L118 19.89l7.56-18.26a2.25 2.25 0 0 0 .2-.77 2 2 0 0 0-.26-.86h10.19c-1.42.78-1.91 2.12-1.91 4.37v15.55c0 2 .3 3.24 1.75 4.38h-8.15c1.48-1.19 1.75-2.41 1.75-4.38V3.59l-8.38 19.15a2.11 2.11 0 0 0-.24.82 1.79 1.79 0 0 0 .24.74H115a3 3 0 0 0 .2-.65 2.86 2.86 0 0 0-.27-1l-8.14-19.46ZM162 17.41l3.6-8.3 3.83 8.3H162m13.46 3.68L169.62 8a2.08 2.08 0 0 1-.26-.81 2.08 2.08 0 0 1 .22-.65h-7.35a2.23 2.23 0 0 1 .19.62 2.28 2.28 0 0 1-.26.84l-6.3 13.1a11.45 11.45 0 0 1-2.08 3.2h6.83a2 2 0 0 1-.69-1.65 3.54 3.54 0 0 1 .2-1.16l.39-.87h10.23l.5 1.16a2.69 2.69 0 0 1 .23 1.08 2.07 2.07 0 0 1-.66 1.44h6.73a11.3 11.3 0 0 1-2.08-3.2M195.59 6.54H203a3 3 0 0 0-1.56 3v11.71h5a10.43 10.43 0 0 0 7-2.12 36.61 36.61 0 0 0-1.69 4.4 1.56 1.56 0 0 0 .33.77h-16.5c1.06-.48 1.52-1.47 1.52-3V9.59c0-1.62-.46-2.57-1.52-3M240.9 21.46c-3.53 0-5.58-2.08-5.58-5.73 0-4 2.18-6.36 6-6.36 3.53 0 5.62 2.09 5.62 5.79 0 4-2.22 6.3-6.08 6.3m10.69-6c0-5.85-3.79-9.3-10.46-9.3-6.46 0-10.4 3.87-10.4 9.51s3.77 9.1 10.4 9.1c6.47 0 10.46-3.94 10.46-9.31M275.38 21.19c0 1.64.37 2.56 1.52 3.11h-7c1.06-.48 1.48-1.47 1.48-3.11V9.64c0-1.63-.42-2.62-1.48-3.1h8.67a.91.91 0 0 0-.16.45 1.69 1.69 0 0 0 .23.65l6.94 13.45-.07-11.41c0-1.63-.52-2.65-1.55-3.1h6.84c-1.43.68-1.46 1.7-1.46 3v13.19a2.1 2.1 0 0 0 .44 1.53h-7.13a1 1 0 0 0 .2-.55 1.34 1.34 0 0 0-.23-.58l-7.53-13.83ZM311.26 21.25V9.58c0-1.61-.43-2.56-1.49-3h18.61a1.3 1.3 0 0 0-.29.72c0 .35.49 1.58 1.12 3.85a11.82 11.82 0 0 0-6.53-1.53h-7.06v4.15h7.81a6.23 6.23 0 0 0 2.38-.47l-1.48 2.5a2.06 2.06 0 0 1-1.85 1h-6.86v4.47h7.45a10.49 10.49 0 0 0 6.93-2.18 34.81 34.81 0 0 0-1.68 4.39 1.62 1.62 0 0 0 .32.78h-18.87c1.06-.46 1.49-1.44 1.49-3M119.94 47.71h3.66c-.59.3-.82.89-.82 1.81v7H126a6.79 6.79 0 0 0 4.05-1 12.2 12.2 0 0 0-.69 1.86 2.51 2.51 0 0 0 .1.61H120a1.88 1.88 0 0 0 .8-1.82v-6.65c0-.93-.24-1.51-.8-1.81M141.26 56.79a2.15 2.15 0 0 1-2.35-2.41 2.36 2.36 0 0 1 2-2.66 2.34 2.34 0 0 1 .53 0 2.17 2.17 0 0 1 2.35 2 2.26 2.26 0 0 1 0 .45 2.37 2.37 0 0 1-2 2.64 2.79 2.79 0 0 1-.5 0m4.48-2.54c0-2.46-1.58-3.92-4.38-3.92S137 52 137 54.33s1.58 3.83 4.39 3.83 4.38-1.66 4.38-3.93M155.28 56.68c0 .69.14 1.08.63 1.31H153c.43-.21.63-.62.63-1.31v-4.86c0-.69-.2-1.1-.63-1.31h3.63a.6.6 0 0 0-.06.19.73.73 0 0 0 .1.28l2.93 5.63v-4.79a1.28 1.28 0 0 0-.66-1.31h2.87c-.59.29-.59.72-.59 1.28v5.55a1.05 1.05 0 0 0 .16.65h-3a.52.52 0 0 0 .1-.23.77.77 0 0 0-.1-.25l-3.17-5.82ZM171.58 56.7v-4.91h1.26c2.11 0 3.06.61 3.06 2.46s-.9 2.45-2.9 2.45h-1.43m1.76-6.19h-4.23c.46.21.63.62.63 1.31v4.86c0 .69-.17 1.1-.63 1.31h4.26c2.81 0 4.49-1.47 4.49-3.76s-1.55-3.72-4.52-3.72M189.57 56.79a2.18 2.18 0 0 1-2.35-2 2.06 2.06 0 0 1 0-.43 2.36 2.36 0 0 1 2-2.66 2.44 2.44 0 0 1 .54 0 2.17 2.17 0 0 1 2.35 2 2.26 2.26 0 0 1 0 .45 2.37 2.37 0 0 1-2.11 2.63 2.44 2.44 0 0 1-.47 0m4.49-2.54c0-2.46-1.59-3.92-4.39-3.92s-4.39 1.64-4.39 4 1.58 3.83 4.39 3.83 4.39-1.66 4.39-3.93M203.6 56.68c0 .69.13 1.08.62 1.31h-2.94c.44-.21.64-.62.64-1.31v-4.86c0-.69-.2-1.1-.64-1.31h3.63a.6.6 0 0 0-.06.19.71.71 0 0 0 .09.28l2.91 5.63v-4.79a1.28 1.28 0 0 0-.65-1.31h2.86c-.59.29-.59.72-.59 1.28v5.55a1.05 1.05 0 0 0 .16.65h-3a.52.52 0 0 0 .1-.23.77.77 0 0 0-.1-.25l-3.17-5.82Z"/></svg>